# xmcd
#
# Track frame offsets:
#	150
#	19001
#	37200
#	55187
#	67969
#	86103
#	104519
#	141029
#	162950
#	179230
#	198348
#	212262
#	227907
#
# Disc length: 3136 seconds
#
# Revision: 1
# Processed by: cddbd v1.5.2PL0 Copyright (c) Steve Scherf et al.
# Submitted via: audiograbber 1.83.01
#
DISCID=b90c3e0d
DTITLE=Gilles Sioui - Brother To Brother
DYEAR=2013
DGENRE=Blues
TTITLE0=Grapevine
TTITLE1=Mama's Waiting
TTITLE2=Brother To Brother
TTITLE3=I Must Be Somewhere
TTITLE4=The Nail
TTITLE5=Boxcar
TTITLE6=Wayfaring Pilgrim
TTITLE7=Halloween On Gazoline
TTITLE8=She Changed Everything
TTITLE9=Don't Give Me No Blues
TTITLE10=Half Finished Song
TTITLE11=Chant Ancestral Wendat
TTITLE12=Toujours Un Frère
EXTD=Bros11201
EXTT0=
EXTT1=
EXTT2=
EXTT3=
EXTT4=
EXTT5=
EXTT6=
EXTT7=
EXTT8=
EXTT9=
EXTT10=
EXTT11=
EXTT12=
PLAYORDER=
